<mxfile host="Electron" modified="2024-02-29T15:25:30.109Z" agent="Mozilla/5.0 (X11; Linux x86_64) AppleWebKit/537.36 (KHTML, like Gecko) draw.io/23.1.5 Chrome/120.0.6099.109 Electron/28.1.0 Safari/537.36" etag="TyuYLkiSxSA2ePz0ERx3" version="23.1.5" type="device" pages="3">
  <diagram name="Page-1" id="O4F9U0Yyi7sgbIAs_vMU">
    <mxGraphModel dx="1046" dy="531" grid="1" gridSize="10" guides="1" tooltips="1" connect="1" arrows="1" fold="1" page="1" pageScale="1" pageWidth="4681" pageHeight="3300" math="0" shadow="0">
      <root>
        <mxCell id="0" />
        <mxCell id="1" parent="0" />
        <mxCell id="RqCOI-t8X3oeuVNKAJMU-1" value="abstract&amp;nbsp; int cost();" style="rounded=0;whiteSpace=wrap;html=1;" parent="1" vertex="1">
          <mxGeometry x="110" y="90" width="170" height="50" as="geometry" />
        </mxCell>
        <mxCell id="RqCOI-t8X3oeuVNKAJMU-2" value="abstract BasePizza" style="text;html=1;strokeColor=none;fillColor=none;align=center;verticalAlign=middle;whiteSpace=wrap;rounded=0;" parent="1" vertex="1">
          <mxGeometry x="137.5" y="50" width="115" height="30" as="geometry" />
        </mxCell>
        <mxCell id="RqCOI-t8X3oeuVNKAJMU-3" value="&lt;div style=&quot;text-align: left;&quot;&gt;&lt;span style=&quot;background-color: initial;&quot;&gt;int cost()&lt;/span&gt;&lt;/div&gt;&lt;div style=&quot;text-align: left;&quot;&gt;&lt;span style=&quot;background-color: initial;&quot;&gt;{&lt;/span&gt;&lt;/div&gt;&lt;div style=&quot;text-align: left;&quot;&gt;&lt;span style=&quot;background-color: initial;&quot;&gt;return 200;&lt;/span&gt;&lt;/div&gt;&lt;div style=&quot;text-align: left;&quot;&gt;&lt;span style=&quot;background-color: initial;&quot;&gt;}&lt;/span&gt;&lt;/div&gt;" style="whiteSpace=wrap;html=1;aspect=fixed;" parent="1" vertex="1">
          <mxGeometry x="30" y="220" width="120" height="120" as="geometry" />
        </mxCell>
        <mxCell id="RqCOI-t8X3oeuVNKAJMU-7" style="edgeStyle=orthogonalEdgeStyle;rounded=0;orthogonalLoop=1;jettySize=auto;html=1;entryX=0.25;entryY=1;entryDx=0;entryDy=0;" parent="1" source="RqCOI-t8X3oeuVNKAJMU-4" target="RqCOI-t8X3oeuVNKAJMU-1" edge="1">
          <mxGeometry relative="1" as="geometry" />
        </mxCell>
        <mxCell id="RqCOI-t8X3oeuVNKAJMU-4" value="FarmhousePizza&lt;br&gt;extends BasePizza" style="text;html=1;strokeColor=none;fillColor=none;align=center;verticalAlign=middle;whiteSpace=wrap;rounded=0;" parent="1" vertex="1">
          <mxGeometry x="30" y="180" width="120" height="30" as="geometry" />
        </mxCell>
        <mxCell id="RqCOI-t8X3oeuVNKAJMU-5" value="&lt;div style=&quot;text-align: left;&quot;&gt;&lt;span style=&quot;background-color: initial;&quot;&gt;int cost()&lt;/span&gt;&lt;/div&gt;&lt;div style=&quot;text-align: left;&quot;&gt;&lt;span style=&quot;background-color: initial;&quot;&gt;{&lt;/span&gt;&lt;/div&gt;&lt;div style=&quot;text-align: left;&quot;&gt;&lt;span style=&quot;background-color: initial;&quot;&gt;return 100;&lt;/span&gt;&lt;/div&gt;&lt;div style=&quot;text-align: left;&quot;&gt;&lt;span style=&quot;background-color: initial;&quot;&gt;}&lt;/span&gt;&lt;/div&gt;" style="whiteSpace=wrap;html=1;aspect=fixed;" parent="1" vertex="1">
          <mxGeometry x="252.5" y="220" width="120" height="120" as="geometry" />
        </mxCell>
        <mxCell id="RqCOI-t8X3oeuVNKAJMU-8" style="edgeStyle=orthogonalEdgeStyle;rounded=0;orthogonalLoop=1;jettySize=auto;html=1;entryX=0.75;entryY=1;entryDx=0;entryDy=0;" parent="1" source="RqCOI-t8X3oeuVNKAJMU-6" target="RqCOI-t8X3oeuVNKAJMU-1" edge="1">
          <mxGeometry relative="1" as="geometry" />
        </mxCell>
        <mxCell id="RqCOI-t8X3oeuVNKAJMU-6" value="MargheritaPizza&lt;br&gt;extends BasePizza" style="text;html=1;strokeColor=none;fillColor=none;align=center;verticalAlign=middle;whiteSpace=wrap;rounded=0;" parent="1" vertex="1">
          <mxGeometry x="252.5" y="180" width="120" height="30" as="geometry" />
        </mxCell>
        <mxCell id="RqCOI-t8X3oeuVNKAJMU-9" value="is-a" style="text;html=1;align=center;verticalAlign=middle;resizable=0;points=[];autosize=1;strokeColor=none;fillColor=none;" parent="1" vertex="1">
          <mxGeometry x="81" y="135" width="40" height="30" as="geometry" />
        </mxCell>
        <mxCell id="RqCOI-t8X3oeuVNKAJMU-10" value="is-a" style="text;html=1;align=center;verticalAlign=middle;resizable=0;points=[];autosize=1;strokeColor=none;fillColor=none;" parent="1" vertex="1">
          <mxGeometry x="305" y="150" width="40" height="30" as="geometry" />
        </mxCell>
        <mxCell id="RqCOI-t8X3oeuVNKAJMU-11" value="" style="rounded=0;whiteSpace=wrap;html=1;" parent="1" vertex="1">
          <mxGeometry x="700" y="80" width="120" height="60" as="geometry" />
        </mxCell>
        <mxCell id="RqCOI-t8X3oeuVNKAJMU-12" value="abstract ToppingDecorator extends BasePiza" style="text;html=1;align=center;verticalAlign=middle;resizable=0;points=[];autosize=1;strokeColor=none;fillColor=none;" parent="1" vertex="1">
          <mxGeometry x="630" y="40" width="260" height="30" as="geometry" />
        </mxCell>
        <mxCell id="RqCOI-t8X3oeuVNKAJMU-13" value="&lt;div style=&quot;&quot;&gt;BasePizza basePizza;&lt;/div&gt;&lt;div style=&quot;&quot;&gt;&lt;br&gt;&lt;/div&gt;&lt;div style=&quot;&quot;&gt;public ExtraCheese(BasePizza pizza){&lt;/div&gt;&lt;div style=&quot;&quot;&gt;&lt;span style=&quot;white-space: pre;&quot;&gt;&#x9;&lt;/span&gt;this.basePizza = pizza;&lt;br&gt;&lt;/div&gt;&lt;div style=&quot;&quot;&gt;}&lt;/div&gt;&lt;div style=&quot;&quot;&gt;&lt;br&gt;&lt;/div&gt;&lt;div style=&quot;&quot;&gt;int cost() {&lt;/div&gt;&lt;div style=&quot;&quot;&gt;&lt;span style=&quot;white-space: pre;&quot;&gt;&#x9;&lt;/span&gt;return basePizza.cost + 10;&lt;br&gt;&lt;/div&gt;&lt;div style=&quot;&quot;&gt;}&lt;/div&gt;" style="whiteSpace=wrap;html=1;aspect=fixed;align=left;" parent="1" vertex="1">
          <mxGeometry x="560" y="260" width="210" height="210" as="geometry" />
        </mxCell>
        <mxCell id="RqCOI-t8X3oeuVNKAJMU-14" value="ExtraCheese extends ToppingDecorator" style="text;html=1;align=center;verticalAlign=middle;resizable=0;points=[];autosize=1;strokeColor=none;fillColor=none;" parent="1" vertex="1">
          <mxGeometry x="550" y="230" width="240" height="30" as="geometry" />
        </mxCell>
        <mxCell id="RqCOI-t8X3oeuVNKAJMU-15" value="&lt;div style=&quot;&quot;&gt;BasePizza basePizza;&lt;/div&gt;&lt;div style=&quot;&quot;&gt;&lt;br&gt;&lt;/div&gt;&lt;div style=&quot;&quot;&gt;public Mushroom(BasePizza pizza){&lt;/div&gt;&lt;div style=&quot;&quot;&gt;&lt;span style=&quot;white-space: pre;&quot;&gt;&#x9;&lt;/span&gt;this.basePizza = pizza;&lt;br&gt;&lt;/div&gt;&lt;div style=&quot;&quot;&gt;}&lt;/div&gt;&lt;div style=&quot;&quot;&gt;&lt;br&gt;&lt;/div&gt;&lt;div style=&quot;&quot;&gt;int cost() {&lt;/div&gt;&lt;div style=&quot;&quot;&gt;&lt;span style=&quot;white-space: pre;&quot;&gt;&#x9;&lt;/span&gt;return basePizza.cost + 15;&lt;br&gt;&lt;/div&gt;&lt;div style=&quot;&quot;&gt;}&lt;/div&gt;" style="whiteSpace=wrap;html=1;aspect=fixed;align=left;" parent="1" vertex="1">
          <mxGeometry x="930" y="260" width="210" height="210" as="geometry" />
        </mxCell>
        <mxCell id="RqCOI-t8X3oeuVNKAJMU-23" style="edgeStyle=orthogonalEdgeStyle;rounded=0;orthogonalLoop=1;jettySize=auto;html=1;entryX=1;entryY=0.75;entryDx=0;entryDy=0;" parent="1" source="RqCOI-t8X3oeuVNKAJMU-16" target="RqCOI-t8X3oeuVNKAJMU-11" edge="1">
          <mxGeometry relative="1" as="geometry" />
        </mxCell>
        <mxCell id="RqCOI-t8X3oeuVNKAJMU-16" value="Mushroom extends ToppingDecorator" style="text;html=1;align=center;verticalAlign=middle;resizable=0;points=[];autosize=1;strokeColor=none;fillColor=none;" parent="1" vertex="1">
          <mxGeometry x="930" y="230" width="220" height="30" as="geometry" />
        </mxCell>
        <mxCell id="RqCOI-t8X3oeuVNKAJMU-17" value="" style="endArrow=classic;html=1;rounded=0;exitX=1;exitY=0.25;exitDx=0;exitDy=0;entryX=0.008;entryY=0.367;entryDx=0;entryDy=0;entryPerimeter=0;" parent="1" source="RqCOI-t8X3oeuVNKAJMU-1" target="RqCOI-t8X3oeuVNKAJMU-11" edge="1">
          <mxGeometry width="50" height="50" relative="1" as="geometry">
            <mxPoint x="470" y="150" as="sourcePoint" />
            <mxPoint x="520" y="100" as="targetPoint" />
          </mxGeometry>
        </mxCell>
        <mxCell id="RqCOI-t8X3oeuVNKAJMU-18" value="" style="endArrow=classic;html=1;rounded=0;exitX=0;exitY=0.75;exitDx=0;exitDy=0;entryX=1;entryY=0.75;entryDx=0;entryDy=0;" parent="1" target="RqCOI-t8X3oeuVNKAJMU-1" edge="1">
          <mxGeometry width="50" height="50" relative="1" as="geometry">
            <mxPoint x="700" y="129" as="sourcePoint" />
            <mxPoint x="282.03999999999996" y="126" as="targetPoint" />
          </mxGeometry>
        </mxCell>
        <mxCell id="RqCOI-t8X3oeuVNKAJMU-19" value="has-a" style="text;html=1;align=center;verticalAlign=middle;resizable=0;points=[];autosize=1;strokeColor=none;fillColor=none;" parent="1" vertex="1">
          <mxGeometry x="455" y="78" width="50" height="30" as="geometry" />
        </mxCell>
        <mxCell id="RqCOI-t8X3oeuVNKAJMU-20" value="is-a" style="text;html=1;align=center;verticalAlign=middle;resizable=0;points=[];autosize=1;strokeColor=none;fillColor=none;" parent="1" vertex="1">
          <mxGeometry x="470" y="118" width="40" height="30" as="geometry" />
        </mxCell>
        <mxCell id="RqCOI-t8X3oeuVNKAJMU-21" style="edgeStyle=orthogonalEdgeStyle;rounded=0;orthogonalLoop=1;jettySize=auto;html=1;entryX=0.167;entryY=1.033;entryDx=0;entryDy=0;entryPerimeter=0;" parent="1" source="RqCOI-t8X3oeuVNKAJMU-14" target="RqCOI-t8X3oeuVNKAJMU-11" edge="1">
          <mxGeometry relative="1" as="geometry" />
        </mxCell>
        <mxCell id="RqCOI-t8X3oeuVNKAJMU-22" value="is-a" style="text;html=1;align=center;verticalAlign=middle;resizable=0;points=[];autosize=1;strokeColor=none;fillColor=none;" parent="1" vertex="1">
          <mxGeometry x="650" y="158" width="40" height="30" as="geometry" />
        </mxCell>
        <mxCell id="RqCOI-t8X3oeuVNKAJMU-24" value="is-a" style="text;html=1;align=center;verticalAlign=middle;resizable=0;points=[];autosize=1;strokeColor=none;fillColor=none;" parent="1" vertex="1">
          <mxGeometry x="830" y="158" width="40" height="30" as="geometry" />
        </mxCell>
        <mxCell id="RqCOI-t8X3oeuVNKAJMU-25" value="&lt;b&gt;DECORATOR PATTERN&lt;/b&gt;" style="text;html=1;align=center;verticalAlign=middle;resizable=0;points=[];autosize=1;strokeColor=none;fillColor=none;" parent="1" vertex="1">
          <mxGeometry x="345" y="20" width="160" height="30" as="geometry" />
        </mxCell>
      </root>
    </mxGraphModel>
  </diagram>
  <diagram id="BYIwp3yhX8HTR1fs-TIQ" name="Decorator">
    <mxGraphModel dx="1465" dy="965" grid="1" gridSize="10" guides="1" tooltips="1" connect="1" arrows="1" fold="1" page="1" pageScale="1" pageWidth="4681" pageHeight="3300" math="0" shadow="0">
      <root>
        <mxCell id="0" />
        <mxCell id="1" parent="0" />
        <mxCell id="IM4TIep1K4hsq-yu1ENN-22" value="" style="whiteSpace=wrap;html=1;aspect=fixed;" parent="1" vertex="1">
          <mxGeometry x="380" y="520" width="140" height="140" as="geometry" />
        </mxCell>
        <mxCell id="IM4TIep1K4hsq-yu1ENN-1" value="Notifiier" style="swimlane;fontStyle=1;align=center;verticalAlign=top;childLayout=stackLayout;horizontal=1;startSize=26;horizontalStack=0;resizeParent=1;resizeParentMax=0;resizeLast=0;collapsible=1;marginBottom=0;whiteSpace=wrap;html=1;" parent="1" vertex="1">
          <mxGeometry x="120" y="140" width="160" height="86" as="geometry" />
        </mxCell>
        <mxCell id="IM4TIep1K4hsq-yu1ENN-2" value="..." style="text;strokeColor=none;fillColor=none;align=left;verticalAlign=top;spacingLeft=4;spacingRight=4;overflow=hidden;rotatable=0;points=[[0,0.5],[1,0.5]];portConstraint=eastwest;whiteSpace=wrap;html=1;" parent="IM4TIep1K4hsq-yu1ENN-1" vertex="1">
          <mxGeometry y="26" width="160" height="26" as="geometry" />
        </mxCell>
        <mxCell id="IM4TIep1K4hsq-yu1ENN-3" value="" style="line;strokeWidth=1;fillColor=none;align=left;verticalAlign=middle;spacingTop=-1;spacingLeft=3;spacingRight=3;rotatable=0;labelPosition=right;points=[];portConstraint=eastwest;strokeColor=inherit;" parent="IM4TIep1K4hsq-yu1ENN-1" vertex="1">
          <mxGeometry y="52" width="160" height="8" as="geometry" />
        </mxCell>
        <mxCell id="IM4TIep1K4hsq-yu1ENN-4" value="+ send()" style="text;strokeColor=none;fillColor=none;align=left;verticalAlign=top;spacingLeft=4;spacingRight=4;overflow=hidden;rotatable=0;points=[[0,0.5],[1,0.5]];portConstraint=eastwest;whiteSpace=wrap;html=1;" parent="IM4TIep1K4hsq-yu1ENN-1" vertex="1">
          <mxGeometry y="60" width="160" height="26" as="geometry" />
        </mxCell>
        <mxCell id="IM4TIep1K4hsq-yu1ENN-5" value="Application" style="swimlane;fontStyle=1;align=center;verticalAlign=top;childLayout=stackLayout;horizontal=1;startSize=26;horizontalStack=0;resizeParent=1;resizeParentMax=0;resizeLast=0;collapsible=1;marginBottom=0;whiteSpace=wrap;html=1;" parent="1" vertex="1">
          <mxGeometry x="440" y="140" width="160" height="86" as="geometry" />
        </mxCell>
        <mxCell id="IM4TIep1K4hsq-yu1ENN-6" value="- notifier: Notifier" style="text;strokeColor=none;fillColor=none;align=left;verticalAlign=top;spacingLeft=4;spacingRight=4;overflow=hidden;rotatable=0;points=[[0,0.5],[1,0.5]];portConstraint=eastwest;whiteSpace=wrap;html=1;" parent="IM4TIep1K4hsq-yu1ENN-5" vertex="1">
          <mxGeometry y="26" width="160" height="26" as="geometry" />
        </mxCell>
        <mxCell id="IM4TIep1K4hsq-yu1ENN-7" value="" style="line;strokeWidth=1;fillColor=none;align=left;verticalAlign=middle;spacingTop=-1;spacingLeft=3;spacingRight=3;rotatable=0;labelPosition=right;points=[];portConstraint=eastwest;strokeColor=inherit;" parent="IM4TIep1K4hsq-yu1ENN-5" vertex="1">
          <mxGeometry y="52" width="160" height="8" as="geometry" />
        </mxCell>
        <mxCell id="IM4TIep1K4hsq-yu1ENN-8" value="+ sendNotification()" style="text;strokeColor=none;fillColor=none;align=left;verticalAlign=top;spacingLeft=4;spacingRight=4;overflow=hidden;rotatable=0;points=[[0,0.5],[1,0.5]];portConstraint=eastwest;whiteSpace=wrap;html=1;" parent="IM4TIep1K4hsq-yu1ENN-5" vertex="1">
          <mxGeometry y="60" width="160" height="26" as="geometry" />
        </mxCell>
        <mxCell id="IM4TIep1K4hsq-yu1ENN-11" value="" style="endArrow=diamondThin;endFill=0;endSize=24;html=1;rounded=0;exitX=0;exitY=0.5;exitDx=0;exitDy=0;entryX=1;entryY=0.5;entryDx=0;entryDy=0;" parent="1" source="IM4TIep1K4hsq-yu1ENN-6" target="IM4TIep1K4hsq-yu1ENN-2" edge="1">
          <mxGeometry width="160" relative="1" as="geometry">
            <mxPoint x="330" y="110" as="sourcePoint" />
            <mxPoint x="490" y="110" as="targetPoint" />
          </mxGeometry>
        </mxCell>
        <mxCell id="IM4TIep1K4hsq-yu1ENN-12" value="Decorator Pattern" style="text;html=1;align=center;verticalAlign=middle;resizable=0;points=[];autosize=1;strokeColor=none;fillColor=none;" parent="1" vertex="1">
          <mxGeometry x="210" y="78" width="120" height="30" as="geometry" />
        </mxCell>
        <mxCell id="IM4TIep1K4hsq-yu1ENN-13" value="Notifier" style="rounded=1;whiteSpace=wrap;html=1;" parent="1" vertex="1">
          <mxGeometry x="320" y="290" width="120" height="40" as="geometry" />
        </mxCell>
        <mxCell id="IM4TIep1K4hsq-yu1ENN-14" value="SMS" style="rounded=1;whiteSpace=wrap;html=1;" parent="1" vertex="1">
          <mxGeometry x="170" y="400" width="120" height="40" as="geometry" />
        </mxCell>
        <mxCell id="IM4TIep1K4hsq-yu1ENN-18" style="edgeStyle=orthogonalEdgeStyle;rounded=0;orthogonalLoop=1;jettySize=auto;html=1;" parent="1" source="IM4TIep1K4hsq-yu1ENN-15" edge="1">
          <mxGeometry relative="1" as="geometry">
            <mxPoint x="380" y="330" as="targetPoint" />
          </mxGeometry>
        </mxCell>
        <mxCell id="IM4TIep1K4hsq-yu1ENN-15" value="Facebook" style="rounded=1;whiteSpace=wrap;html=1;" parent="1" vertex="1">
          <mxGeometry x="350" y="400" width="120" height="40" as="geometry" />
        </mxCell>
        <mxCell id="IM4TIep1K4hsq-yu1ENN-19" style="edgeStyle=orthogonalEdgeStyle;rounded=0;orthogonalLoop=1;jettySize=auto;html=1;exitX=0.5;exitY=0;exitDx=0;exitDy=0;entryX=0.5;entryY=1;entryDx=0;entryDy=0;" parent="1" source="IM4TIep1K4hsq-yu1ENN-16" target="IM4TIep1K4hsq-yu1ENN-13" edge="1">
          <mxGeometry relative="1" as="geometry" />
        </mxCell>
        <mxCell id="IM4TIep1K4hsq-yu1ENN-16" value="Slack" style="rounded=1;whiteSpace=wrap;html=1;" parent="1" vertex="1">
          <mxGeometry x="520" y="400" width="120" height="40" as="geometry" />
        </mxCell>
        <mxCell id="IM4TIep1K4hsq-yu1ENN-17" value="" style="endArrow=classic;html=1;rounded=0;exitX=0.417;exitY=0;exitDx=0;exitDy=0;exitPerimeter=0;" parent="1" source="IM4TIep1K4hsq-yu1ENN-14" edge="1">
          <mxGeometry width="50" height="50" relative="1" as="geometry">
            <mxPoint x="370" y="390" as="sourcePoint" />
            <mxPoint x="380" y="330" as="targetPoint" />
            <Array as="points">
              <mxPoint x="380" y="360" />
            </Array>
          </mxGeometry>
        </mxCell>
        <mxCell id="IM4TIep1K4hsq-yu1ENN-20" value="&amp;nbsp;Inherits (is-a)" style="text;html=1;align=center;verticalAlign=middle;resizable=0;points=[];autosize=1;strokeColor=none;fillColor=none;" parent="1" vertex="1">
          <mxGeometry x="380" y="338" width="100" height="30" as="geometry" />
        </mxCell>
        <mxCell id="IM4TIep1K4hsq-yu1ENN-21" value="Target" style="ellipse;whiteSpace=wrap;html=1;aspect=fixed;" parent="1" vertex="1">
          <mxGeometry x="390" y="530" width="80" height="80" as="geometry" />
        </mxCell>
        <mxCell id="IM4TIep1K4hsq-yu1ENN-23" value="wrapper" style="text;html=1;strokeColor=none;fillColor=none;align=center;verticalAlign=middle;whiteSpace=wrap;rounded=0;" parent="1" vertex="1">
          <mxGeometry x="430" y="620" width="60" height="30" as="geometry" />
        </mxCell>
        <mxCell id="IM4TIep1K4hsq-yu1ENN-26" value="" style="edgeStyle=orthogonalEdgeStyle;rounded=0;orthogonalLoop=1;jettySize=auto;html=1;exitX=0.5;exitY=0;exitDx=0;exitDy=0;entryX=0.5;entryY=1;entryDx=0;entryDy=0;" parent="1" source="IM4TIep1K4hsq-yu1ENN-25" target="IM4TIep1K4hsq-yu1ENN-24" edge="1">
          <mxGeometry relative="1" as="geometry" />
        </mxCell>
        <mxCell id="IM4TIep1K4hsq-yu1ENN-24" value="&amp;lt;&amp;lt;TargetInterface&amp;gt;&amp;gt;" style="swimlane;whiteSpace=wrap;html=1;" parent="1" vertex="1">
          <mxGeometry x="140" y="710" width="200" height="80" as="geometry" />
        </mxCell>
        <mxCell id="IM4TIep1K4hsq-yu1ENN-25" value="Target" style="swimlane;whiteSpace=wrap;html=1;" parent="1" vertex="1">
          <mxGeometry x="140" y="870" width="200" height="80" as="geometry" />
        </mxCell>
        <mxCell id="IM4TIep1K4hsq-yu1ENN-31" value="" style="edgeStyle=orthogonalEdgeStyle;rounded=0;orthogonalLoop=1;jettySize=auto;html=1;" parent="1" source="IM4TIep1K4hsq-yu1ENN-27" target="IM4TIep1K4hsq-yu1ENN-30" edge="1">
          <mxGeometry relative="1" as="geometry" />
        </mxCell>
        <mxCell id="IM4TIep1K4hsq-yu1ENN-27" value="&amp;lt;&amp;lt;WrapperInterface&amp;gt;&amp;gt;" style="swimlane;whiteSpace=wrap;html=1;" parent="1" vertex="1">
          <mxGeometry x="460" y="710" width="200" height="80" as="geometry" />
        </mxCell>
        <mxCell id="IM4TIep1K4hsq-yu1ENN-28" value="" style="edgeStyle=orthogonalEdgeStyle;rounded=0;orthogonalLoop=1;jettySize=auto;html=1;exitX=0;exitY=0.25;exitDx=0;exitDy=0;entryX=1;entryY=0.25;entryDx=0;entryDy=0;" parent="1" source="IM4TIep1K4hsq-yu1ENN-27" target="IM4TIep1K4hsq-yu1ENN-24" edge="1">
          <mxGeometry relative="1" as="geometry">
            <mxPoint x="250" y="880" as="sourcePoint" />
            <mxPoint x="250" y="800" as="targetPoint" />
          </mxGeometry>
        </mxCell>
        <mxCell id="IM4TIep1K4hsq-yu1ENN-29" value="" style="endArrow=diamondThin;endFill=0;endSize=24;html=1;rounded=0;entryX=0;entryY=0.5;entryDx=0;entryDy=0;exitX=1;exitY=0.5;exitDx=0;exitDy=0;" parent="1" source="IM4TIep1K4hsq-yu1ENN-24" target="IM4TIep1K4hsq-yu1ENN-27" edge="1">
          <mxGeometry width="160" relative="1" as="geometry">
            <mxPoint x="290" y="730" as="sourcePoint" />
            <mxPoint x="450" y="730" as="targetPoint" />
          </mxGeometry>
        </mxCell>
        <mxCell id="IM4TIep1K4hsq-yu1ENN-30" value="WrapperClass1" style="swimlane;whiteSpace=wrap;html=1;" parent="1" vertex="1">
          <mxGeometry x="460" y="870" width="200" height="80" as="geometry" />
        </mxCell>
        <mxCell id="IM4TIep1K4hsq-yu1ENN-32" value="Notifier" style="swimlane;fontStyle=1;align=center;verticalAlign=top;childLayout=stackLayout;horizontal=1;startSize=26;horizontalStack=0;resizeParent=1;resizeParentMax=0;resizeLast=0;collapsible=1;marginBottom=0;whiteSpace=wrap;html=1;" parent="1" vertex="1">
          <mxGeometry x="320" y="1150" width="160" height="86" as="geometry" />
        </mxCell>
        <mxCell id="IM4TIep1K4hsq-yu1ENN-33" value="..." style="text;strokeColor=none;fillColor=none;align=left;verticalAlign=top;spacingLeft=4;spacingRight=4;overflow=hidden;rotatable=0;points=[[0,0.5],[1,0.5]];portConstraint=eastwest;whiteSpace=wrap;html=1;" parent="IM4TIep1K4hsq-yu1ENN-32" vertex="1">
          <mxGeometry y="26" width="160" height="26" as="geometry" />
        </mxCell>
        <mxCell id="IM4TIep1K4hsq-yu1ENN-34" value="" style="line;strokeWidth=1;fillColor=none;align=left;verticalAlign=middle;spacingTop=-1;spacingLeft=3;spacingRight=3;rotatable=0;labelPosition=right;points=[];portConstraint=eastwest;strokeColor=inherit;" parent="IM4TIep1K4hsq-yu1ENN-32" vertex="1">
          <mxGeometry y="52" width="160" height="8" as="geometry" />
        </mxCell>
        <mxCell id="IM4TIep1K4hsq-yu1ENN-35" value="+ send()" style="text;strokeColor=none;fillColor=none;align=left;verticalAlign=top;spacingLeft=4;spacingRight=4;overflow=hidden;rotatable=0;points=[[0,0.5],[1,0.5]];portConstraint=eastwest;whiteSpace=wrap;html=1;" parent="IM4TIep1K4hsq-yu1ENN-32" vertex="1">
          <mxGeometry y="60" width="160" height="26" as="geometry" />
        </mxCell>
        <mxCell id="IM4TIep1K4hsq-yu1ENN-36" value="BaseDecorator" style="swimlane;fontStyle=1;align=center;verticalAlign=top;childLayout=stackLayout;horizontal=1;startSize=26;horizontalStack=0;resizeParent=1;resizeParentMax=0;resizeLast=0;collapsible=1;marginBottom=0;whiteSpace=wrap;html=1;" parent="1" vertex="1">
          <mxGeometry x="320" y="1280" width="160" height="86" as="geometry" />
        </mxCell>
        <mxCell id="IM4TIep1K4hsq-yu1ENN-37" value="- notifier: Notifier" style="text;strokeColor=none;fillColor=none;align=left;verticalAlign=top;spacingLeft=4;spacingRight=4;overflow=hidden;rotatable=0;points=[[0,0.5],[1,0.5]];portConstraint=eastwest;whiteSpace=wrap;html=1;" parent="IM4TIep1K4hsq-yu1ENN-36" vertex="1">
          <mxGeometry y="26" width="160" height="26" as="geometry" />
        </mxCell>
        <mxCell id="IM4TIep1K4hsq-yu1ENN-38" value="" style="line;strokeWidth=1;fillColor=none;align=left;verticalAlign=middle;spacingTop=-1;spacingLeft=3;spacingRight=3;rotatable=0;labelPosition=right;points=[];portConstraint=eastwest;strokeColor=inherit;" parent="IM4TIep1K4hsq-yu1ENN-36" vertex="1">
          <mxGeometry y="52" width="160" height="8" as="geometry" />
        </mxCell>
        <mxCell id="IM4TIep1K4hsq-yu1ENN-39" value="+ send()" style="text;strokeColor=none;fillColor=none;align=left;verticalAlign=top;spacingLeft=4;spacingRight=4;overflow=hidden;rotatable=0;points=[[0,0.5],[1,0.5]];portConstraint=eastwest;whiteSpace=wrap;html=1;" parent="IM4TIep1K4hsq-yu1ENN-36" vertex="1">
          <mxGeometry y="60" width="160" height="26" as="geometry" />
        </mxCell>
        <mxCell id="IM4TIep1K4hsq-yu1ENN-40" value="" style="endArrow=classic;html=1;rounded=0;entryX=0.494;entryY=0.977;entryDx=0;entryDy=0;entryPerimeter=0;" parent="1" target="IM4TIep1K4hsq-yu1ENN-35" edge="1">
          <mxGeometry width="50" height="50" relative="1" as="geometry">
            <mxPoint x="400" y="1280" as="sourcePoint" />
            <mxPoint x="390" y="1240" as="targetPoint" />
          </mxGeometry>
        </mxCell>
        <mxCell id="IM4TIep1K4hsq-yu1ENN-41" value="" style="endArrow=diamondThin;endFill=0;endSize=24;html=1;rounded=0;entryX=1.015;entryY=0.846;entryDx=0;entryDy=0;entryPerimeter=0;exitX=1.015;exitY=0.923;exitDx=0;exitDy=0;exitPerimeter=0;" parent="1" source="IM4TIep1K4hsq-yu1ENN-37" target="IM4TIep1K4hsq-yu1ENN-33" edge="1">
          <mxGeometry width="160" relative="1" as="geometry">
            <mxPoint x="320" y="1190" as="sourcePoint" />
            <mxPoint x="480" y="1190" as="targetPoint" />
            <Array as="points">
              <mxPoint x="570" y="1330" />
              <mxPoint x="570" y="1200" />
            </Array>
          </mxGeometry>
        </mxCell>
        <mxCell id="IM4TIep1K4hsq-yu1ENN-46" value="SMS" style="swimlane;fontStyle=1;align=center;verticalAlign=top;childLayout=stackLayout;horizontal=1;startSize=26;horizontalStack=0;resizeParent=1;resizeParentMax=0;resizeLast=0;collapsible=1;marginBottom=0;whiteSpace=wrap;html=1;" parent="1" vertex="1">
          <mxGeometry x="170" y="1430" width="160" height="86" as="geometry" />
        </mxCell>
        <mxCell id="IM4TIep1K4hsq-yu1ENN-47" value="..." style="text;strokeColor=none;fillColor=none;align=left;verticalAlign=top;spacingLeft=4;spacingRight=4;overflow=hidden;rotatable=0;points=[[0,0.5],[1,0.5]];portConstraint=eastwest;whiteSpace=wrap;html=1;" parent="IM4TIep1K4hsq-yu1ENN-46" vertex="1">
          <mxGeometry y="26" width="160" height="26" as="geometry" />
        </mxCell>
        <mxCell id="IM4TIep1K4hsq-yu1ENN-48" value="" style="line;strokeWidth=1;fillColor=none;align=left;verticalAlign=middle;spacingTop=-1;spacingLeft=3;spacingRight=3;rotatable=0;labelPosition=right;points=[];portConstraint=eastwest;strokeColor=inherit;" parent="IM4TIep1K4hsq-yu1ENN-46" vertex="1">
          <mxGeometry y="52" width="160" height="8" as="geometry" />
        </mxCell>
        <mxCell id="IM4TIep1K4hsq-yu1ENN-49" value="+ send()" style="text;strokeColor=none;fillColor=none;align=left;verticalAlign=top;spacingLeft=4;spacingRight=4;overflow=hidden;rotatable=0;points=[[0,0.5],[1,0.5]];portConstraint=eastwest;whiteSpace=wrap;html=1;" parent="IM4TIep1K4hsq-yu1ENN-46" vertex="1">
          <mxGeometry y="60" width="160" height="26" as="geometry" />
        </mxCell>
        <mxCell id="IM4TIep1K4hsq-yu1ENN-50" value="Facebook" style="swimlane;fontStyle=1;align=center;verticalAlign=top;childLayout=stackLayout;horizontal=1;startSize=26;horizontalStack=0;resizeParent=1;resizeParentMax=0;resizeLast=0;collapsible=1;marginBottom=0;whiteSpace=wrap;html=1;" parent="1" vertex="1">
          <mxGeometry x="400" y="1430" width="160" height="86" as="geometry" />
        </mxCell>
        <mxCell id="IM4TIep1K4hsq-yu1ENN-51" value="..." style="text;strokeColor=none;fillColor=none;align=left;verticalAlign=top;spacingLeft=4;spacingRight=4;overflow=hidden;rotatable=0;points=[[0,0.5],[1,0.5]];portConstraint=eastwest;whiteSpace=wrap;html=1;" parent="IM4TIep1K4hsq-yu1ENN-50" vertex="1">
          <mxGeometry y="26" width="160" height="26" as="geometry" />
        </mxCell>
        <mxCell id="IM4TIep1K4hsq-yu1ENN-52" value="" style="line;strokeWidth=1;fillColor=none;align=left;verticalAlign=middle;spacingTop=-1;spacingLeft=3;spacingRight=3;rotatable=0;labelPosition=right;points=[];portConstraint=eastwest;strokeColor=inherit;" parent="IM4TIep1K4hsq-yu1ENN-50" vertex="1">
          <mxGeometry y="52" width="160" height="8" as="geometry" />
        </mxCell>
        <mxCell id="IM4TIep1K4hsq-yu1ENN-53" value="+ send()" style="text;strokeColor=none;fillColor=none;align=left;verticalAlign=top;spacingLeft=4;spacingRight=4;overflow=hidden;rotatable=0;points=[[0,0.5],[1,0.5]];portConstraint=eastwest;whiteSpace=wrap;html=1;" parent="IM4TIep1K4hsq-yu1ENN-50" vertex="1">
          <mxGeometry y="60" width="160" height="26" as="geometry" />
        </mxCell>
        <mxCell id="IM4TIep1K4hsq-yu1ENN-54" value="Slack" style="swimlane;fontStyle=1;align=center;verticalAlign=top;childLayout=stackLayout;horizontal=1;startSize=26;horizontalStack=0;resizeParent=1;resizeParentMax=0;resizeLast=0;collapsible=1;marginBottom=0;whiteSpace=wrap;html=1;" parent="1" vertex="1">
          <mxGeometry x="600" y="1430" width="160" height="86" as="geometry" />
        </mxCell>
        <mxCell id="IM4TIep1K4hsq-yu1ENN-55" value="..." style="text;strokeColor=none;fillColor=none;align=left;verticalAlign=top;spacingLeft=4;spacingRight=4;overflow=hidden;rotatable=0;points=[[0,0.5],[1,0.5]];portConstraint=eastwest;whiteSpace=wrap;html=1;" parent="IM4TIep1K4hsq-yu1ENN-54" vertex="1">
          <mxGeometry y="26" width="160" height="26" as="geometry" />
        </mxCell>
        <mxCell id="IM4TIep1K4hsq-yu1ENN-56" value="" style="line;strokeWidth=1;fillColor=none;align=left;verticalAlign=middle;spacingTop=-1;spacingLeft=3;spacingRight=3;rotatable=0;labelPosition=right;points=[];portConstraint=eastwest;strokeColor=inherit;" parent="IM4TIep1K4hsq-yu1ENN-54" vertex="1">
          <mxGeometry y="52" width="160" height="8" as="geometry" />
        </mxCell>
        <mxCell id="IM4TIep1K4hsq-yu1ENN-57" value="+ send()" style="text;strokeColor=none;fillColor=none;align=left;verticalAlign=top;spacingLeft=4;spacingRight=4;overflow=hidden;rotatable=0;points=[[0,0.5],[1,0.5]];portConstraint=eastwest;whiteSpace=wrap;html=1;" parent="IM4TIep1K4hsq-yu1ENN-54" vertex="1">
          <mxGeometry y="60" width="160" height="26" as="geometry" />
        </mxCell>
        <mxCell id="IM4TIep1K4hsq-yu1ENN-58" style="edgeStyle=orthogonalEdgeStyle;rounded=0;orthogonalLoop=1;jettySize=auto;html=1;entryX=0.515;entryY=1.094;entryDx=0;entryDy=0;entryPerimeter=0;" parent="1" source="IM4TIep1K4hsq-yu1ENN-46" target="IM4TIep1K4hsq-yu1ENN-39" edge="1">
          <mxGeometry relative="1" as="geometry">
            <Array as="points">
              <mxPoint x="250" y="1400" />
              <mxPoint x="402" y="1400" />
            </Array>
          </mxGeometry>
        </mxCell>
        <mxCell id="IM4TIep1K4hsq-yu1ENN-59" style="edgeStyle=orthogonalEdgeStyle;rounded=0;orthogonalLoop=1;jettySize=auto;html=1;entryX=0.505;entryY=1.094;entryDx=0;entryDy=0;entryPerimeter=0;" parent="1" edge="1">
          <mxGeometry relative="1" as="geometry">
            <mxPoint x="481.9565217391305" y="1430" as="sourcePoint" />
            <mxPoint x="402.79999999999995" y="1368.4439999999997" as="targetPoint" />
            <Array as="points">
              <mxPoint x="482" y="1400" />
              <mxPoint x="403" y="1400" />
            </Array>
          </mxGeometry>
        </mxCell>
        <mxCell id="IM4TIep1K4hsq-yu1ENN-60" style="edgeStyle=orthogonalEdgeStyle;rounded=0;orthogonalLoop=1;jettySize=auto;html=1;entryX=0.499;entryY=1.06;entryDx=0;entryDy=0;entryPerimeter=0;" parent="1" edge="1">
          <mxGeometry relative="1" as="geometry">
            <mxPoint x="682.9565217391305" y="1430" as="sourcePoint" />
            <mxPoint x="402.8399999999999" y="1367.56" as="targetPoint" />
            <Array as="points">
              <mxPoint x="683" y="1400" />
              <mxPoint x="403" y="1400" />
            </Array>
          </mxGeometry>
        </mxCell>
        <mxCell id="IM4TIep1K4hsq-yu1ENN-61" value="&amp;lt;&amp;lt;component&amp;gt;&amp;gt;" style="swimlane;fontStyle=1;align=center;verticalAlign=top;childLayout=stackLayout;horizontal=1;startSize=26;horizontalStack=0;resizeParent=1;resizeParentMax=0;resizeLast=0;collapsible=1;marginBottom=0;whiteSpace=wrap;html=1;" parent="1" vertex="1">
          <mxGeometry x="290" y="1650" width="160" height="86" as="geometry" />
        </mxCell>
        <mxCell id="IM4TIep1K4hsq-yu1ENN-62" value="..." style="text;strokeColor=none;fillColor=none;align=left;verticalAlign=top;spacingLeft=4;spacingRight=4;overflow=hidden;rotatable=0;points=[[0,0.5],[1,0.5]];portConstraint=eastwest;whiteSpace=wrap;html=1;" parent="IM4TIep1K4hsq-yu1ENN-61" vertex="1">
          <mxGeometry y="26" width="160" height="26" as="geometry" />
        </mxCell>
        <mxCell id="IM4TIep1K4hsq-yu1ENN-63" value="" style="line;strokeWidth=1;fillColor=none;align=left;verticalAlign=middle;spacingTop=-1;spacingLeft=3;spacingRight=3;rotatable=0;labelPosition=right;points=[];portConstraint=eastwest;strokeColor=inherit;" parent="IM4TIep1K4hsq-yu1ENN-61" vertex="1">
          <mxGeometry y="52" width="160" height="8" as="geometry" />
        </mxCell>
        <mxCell id="IM4TIep1K4hsq-yu1ENN-64" value="+ some_action()" style="text;strokeColor=none;fillColor=none;align=left;verticalAlign=top;spacingLeft=4;spacingRight=4;overflow=hidden;rotatable=0;points=[[0,0.5],[1,0.5]];portConstraint=eastwest;whiteSpace=wrap;html=1;" parent="IM4TIep1K4hsq-yu1ENN-61" vertex="1">
          <mxGeometry y="60" width="160" height="26" as="geometry" />
        </mxCell>
        <mxCell id="IM4TIep1K4hsq-yu1ENN-69" style="edgeStyle=orthogonalEdgeStyle;rounded=0;orthogonalLoop=1;jettySize=auto;html=1;" parent="1" source="IM4TIep1K4hsq-yu1ENN-65" edge="1">
          <mxGeometry relative="1" as="geometry">
            <mxPoint x="370" y="1740" as="targetPoint" />
          </mxGeometry>
        </mxCell>
        <mxCell id="IM4TIep1K4hsq-yu1ENN-65" value="ConcreteComponent" style="swimlane;fontStyle=1;align=center;verticalAlign=top;childLayout=stackLayout;horizontal=1;startSize=26;horizontalStack=0;resizeParent=1;resizeParentMax=0;resizeLast=0;collapsible=1;marginBottom=0;whiteSpace=wrap;html=1;" parent="1" vertex="1">
          <mxGeometry x="290" y="1780" width="160" height="86" as="geometry" />
        </mxCell>
        <mxCell id="IM4TIep1K4hsq-yu1ENN-66" value="..." style="text;strokeColor=none;fillColor=none;align=left;verticalAlign=top;spacingLeft=4;spacingRight=4;overflow=hidden;rotatable=0;points=[[0,0.5],[1,0.5]];portConstraint=eastwest;whiteSpace=wrap;html=1;" parent="IM4TIep1K4hsq-yu1ENN-65" vertex="1">
          <mxGeometry y="26" width="160" height="26" as="geometry" />
        </mxCell>
        <mxCell id="IM4TIep1K4hsq-yu1ENN-67" value="" style="line;strokeWidth=1;fillColor=none;align=left;verticalAlign=middle;spacingTop=-1;spacingLeft=3;spacingRight=3;rotatable=0;labelPosition=right;points=[];portConstraint=eastwest;strokeColor=inherit;" parent="IM4TIep1K4hsq-yu1ENN-65" vertex="1">
          <mxGeometry y="52" width="160" height="8" as="geometry" />
        </mxCell>
        <mxCell id="IM4TIep1K4hsq-yu1ENN-68" value="+ some_action()" style="text;strokeColor=none;fillColor=none;align=left;verticalAlign=top;spacingLeft=4;spacingRight=4;overflow=hidden;rotatable=0;points=[[0,0.5],[1,0.5]];portConstraint=eastwest;whiteSpace=wrap;html=1;" parent="IM4TIep1K4hsq-yu1ENN-65" vertex="1">
          <mxGeometry y="60" width="160" height="26" as="geometry" />
        </mxCell>
        <mxCell id="IM4TIep1K4hsq-yu1ENN-70" value="&amp;lt;&amp;lt;BaseDecorator&amp;gt;&amp;gt;" style="swimlane;fontStyle=1;align=center;verticalAlign=top;childLayout=stackLayout;horizontal=1;startSize=26;horizontalStack=0;resizeParent=1;resizeParentMax=0;resizeLast=0;collapsible=1;marginBottom=0;whiteSpace=wrap;html=1;" parent="1" vertex="1">
          <mxGeometry x="520" y="1780" width="190" height="110" as="geometry" />
        </mxCell>
        <mxCell id="IM4TIep1K4hsq-yu1ENN-71" value="- wrappee: Component" style="text;strokeColor=none;fillColor=none;align=left;verticalAlign=top;spacingLeft=4;spacingRight=4;overflow=hidden;rotatable=0;points=[[0,0.5],[1,0.5]];portConstraint=eastwest;whiteSpace=wrap;html=1;" parent="IM4TIep1K4hsq-yu1ENN-70" vertex="1">
          <mxGeometry y="26" width="190" height="26" as="geometry" />
        </mxCell>
        <mxCell id="IM4TIep1K4hsq-yu1ENN-72" value="" style="line;strokeWidth=1;fillColor=none;align=left;verticalAlign=middle;spacingTop=-1;spacingLeft=3;spacingRight=3;rotatable=0;labelPosition=right;points=[];portConstraint=eastwest;strokeColor=inherit;" parent="IM4TIep1K4hsq-yu1ENN-70" vertex="1">
          <mxGeometry y="52" width="190" height="8" as="geometry" />
        </mxCell>
        <mxCell id="IM4TIep1K4hsq-yu1ENN-73" value="+ BaseDecorator(c: Component)&lt;br&gt;+ some_action()" style="text;strokeColor=none;fillColor=none;align=left;verticalAlign=top;spacingLeft=4;spacingRight=4;overflow=hidden;rotatable=0;points=[[0,0.5],[1,0.5]];portConstraint=eastwest;whiteSpace=wrap;html=1;" parent="IM4TIep1K4hsq-yu1ENN-70" vertex="1">
          <mxGeometry y="60" width="190" height="50" as="geometry" />
        </mxCell>
        <mxCell id="IM4TIep1K4hsq-yu1ENN-74" style="edgeStyle=orthogonalEdgeStyle;rounded=0;orthogonalLoop=1;jettySize=auto;html=1;entryX=1.024;entryY=0.88;entryDx=0;entryDy=0;entryPerimeter=0;" parent="1" source="IM4TIep1K4hsq-yu1ENN-70" target="IM4TIep1K4hsq-yu1ENN-62" edge="1">
          <mxGeometry relative="1" as="geometry" />
        </mxCell>
        <mxCell id="IM4TIep1K4hsq-yu1ENN-75" value="" style="endArrow=diamondThin;endFill=0;endSize=24;html=1;rounded=0;entryX=1;entryY=0;entryDx=0;entryDy=0;exitX=1;exitY=0;exitDx=0;exitDy=0;" parent="1" source="IM4TIep1K4hsq-yu1ENN-70" target="IM4TIep1K4hsq-yu1ENN-61" edge="1">
          <mxGeometry width="160" relative="1" as="geometry">
            <mxPoint x="450" y="1780" as="sourcePoint" />
            <mxPoint x="610" y="1780" as="targetPoint" />
            <Array as="points">
              <mxPoint x="710" y="1650" />
            </Array>
          </mxGeometry>
        </mxCell>
        <mxCell id="IM4TIep1K4hsq-yu1ENN-80" value="" style="edgeStyle=orthogonalEdgeStyle;rounded=0;orthogonalLoop=1;jettySize=auto;html=1;" parent="1" source="IM4TIep1K4hsq-yu1ENN-76" target="IM4TIep1K4hsq-yu1ENN-73" edge="1">
          <mxGeometry relative="1" as="geometry" />
        </mxCell>
        <mxCell id="IM4TIep1K4hsq-yu1ENN-76" value="ConcreteDecorator" style="swimlane;fontStyle=1;align=center;verticalAlign=top;childLayout=stackLayout;horizontal=1;startSize=26;horizontalStack=0;resizeParent=1;resizeParentMax=0;resizeLast=0;collapsible=1;marginBottom=0;whiteSpace=wrap;html=1;" parent="1" vertex="1">
          <mxGeometry x="470" y="1920" width="160" height="100" as="geometry" />
        </mxCell>
        <mxCell id="IM4TIep1K4hsq-yu1ENN-77" value="..." style="text;strokeColor=none;fillColor=none;align=left;verticalAlign=top;spacingLeft=4;spacingRight=4;overflow=hidden;rotatable=0;points=[[0,0.5],[1,0.5]];portConstraint=eastwest;whiteSpace=wrap;html=1;" parent="IM4TIep1K4hsq-yu1ENN-76" vertex="1">
          <mxGeometry y="26" width="160" height="26" as="geometry" />
        </mxCell>
        <mxCell id="IM4TIep1K4hsq-yu1ENN-78" value="" style="line;strokeWidth=1;fillColor=none;align=left;verticalAlign=middle;spacingTop=-1;spacingLeft=3;spacingRight=3;rotatable=0;labelPosition=right;points=[];portConstraint=eastwest;strokeColor=inherit;" parent="IM4TIep1K4hsq-yu1ENN-76" vertex="1">
          <mxGeometry y="52" width="160" height="8" as="geometry" />
        </mxCell>
        <mxCell id="IM4TIep1K4hsq-yu1ENN-79" value="+ some_action()&lt;br&gt;+ extra()" style="text;strokeColor=none;fillColor=none;align=left;verticalAlign=top;spacingLeft=4;spacingRight=4;overflow=hidden;rotatable=0;points=[[0,0.5],[1,0.5]];portConstraint=eastwest;whiteSpace=wrap;html=1;" parent="IM4TIep1K4hsq-yu1ENN-76" vertex="1">
          <mxGeometry y="60" width="160" height="40" as="geometry" />
        </mxCell>
        <mxCell id="IM4TIep1K4hsq-yu1ENN-81" value="Client" style="rounded=1;whiteSpace=wrap;html=1;" parent="1" vertex="1">
          <mxGeometry x="310" y="1560" width="120" height="40" as="geometry" />
        </mxCell>
        <mxCell id="IM4TIep1K4hsq-yu1ENN-82" value="" style="endArrow=none;html=1;rounded=0;entryX=0.5;entryY=1;entryDx=0;entryDy=0;exitX=0.5;exitY=0;exitDx=0;exitDy=0;" parent="1" source="IM4TIep1K4hsq-yu1ENN-61" target="IM4TIep1K4hsq-yu1ENN-81" edge="1">
          <mxGeometry width="50" height="50" relative="1" as="geometry">
            <mxPoint x="500" y="1800" as="sourcePoint" />
            <mxPoint x="550" y="1750" as="targetPoint" />
          </mxGeometry>
        </mxCell>
      </root>
    </mxGraphModel>
  </diagram>
  <diagram id="NNClxao9Vto0ucYtd-XY" name="Proxy">
    <mxGraphModel dx="1046" dy="531" grid="1" gridSize="10" guides="1" tooltips="1" connect="1" arrows="1" fold="1" page="1" pageScale="1" pageWidth="4681" pageHeight="3300" math="0" shadow="0">
      <root>
        <mxCell id="0" />
        <mxCell id="1" parent="0" />
        <mxCell id="3USreQd8vCP4ivT73Nro-1" value="&amp;lt;&amp;lt;ServiceInterface&amp;gt;&amp;gt;" style="swimlane;fontStyle=1;align=center;verticalAlign=top;childLayout=stackLayout;horizontal=1;startSize=26;horizontalStack=0;resizeParent=1;resizeParentMax=0;resizeLast=0;collapsible=1;marginBottom=0;whiteSpace=wrap;html=1;" parent="1" vertex="1">
          <mxGeometry x="260" y="80" width="160" height="86" as="geometry" />
        </mxCell>
        <mxCell id="3USreQd8vCP4ivT73Nro-2" value="..." style="text;strokeColor=none;fillColor=none;align=left;verticalAlign=top;spacingLeft=4;spacingRight=4;overflow=hidden;rotatable=0;points=[[0,0.5],[1,0.5]];portConstraint=eastwest;whiteSpace=wrap;html=1;" parent="3USreQd8vCP4ivT73Nro-1" vertex="1">
          <mxGeometry y="26" width="160" height="26" as="geometry" />
        </mxCell>
        <mxCell id="3USreQd8vCP4ivT73Nro-3" value="" style="line;strokeWidth=1;fillColor=none;align=left;verticalAlign=middle;spacingTop=-1;spacingLeft=3;spacingRight=3;rotatable=0;labelPosition=right;points=[];portConstraint=eastwest;strokeColor=inherit;" parent="3USreQd8vCP4ivT73Nro-1" vertex="1">
          <mxGeometry y="52" width="160" height="8" as="geometry" />
        </mxCell>
        <mxCell id="3USreQd8vCP4ivT73Nro-4" value="+ method(type): type" style="text;strokeColor=none;fillColor=none;align=left;verticalAlign=top;spacingLeft=4;spacingRight=4;overflow=hidden;rotatable=0;points=[[0,0.5],[1,0.5]];portConstraint=eastwest;whiteSpace=wrap;html=1;" parent="3USreQd8vCP4ivT73Nro-1" vertex="1">
          <mxGeometry y="60" width="160" height="26" as="geometry" />
        </mxCell>
        <mxCell id="3USreQd8vCP4ivT73Nro-15" style="edgeStyle=orthogonalEdgeStyle;rounded=0;orthogonalLoop=1;jettySize=auto;html=1;" parent="1" edge="1">
          <mxGeometry relative="1" as="geometry">
            <mxPoint x="339" y="166" as="targetPoint" />
            <mxPoint x="449" y="269" as="sourcePoint" />
            <Array as="points">
              <mxPoint x="449" y="270" />
              <mxPoint x="340" y="270" />
            </Array>
          </mxGeometry>
        </mxCell>
        <mxCell id="3USreQd8vCP4ivT73Nro-5" value="Service" style="swimlane;fontStyle=1;align=center;verticalAlign=top;childLayout=stackLayout;horizontal=1;startSize=26;horizontalStack=0;resizeParent=1;resizeParentMax=0;resizeLast=0;collapsible=1;marginBottom=0;whiteSpace=wrap;html=1;" parent="1" vertex="1">
          <mxGeometry x="450" y="230" width="160" height="86" as="geometry" />
        </mxCell>
        <mxCell id="3USreQd8vCP4ivT73Nro-6" value="..." style="text;strokeColor=none;fillColor=none;align=left;verticalAlign=top;spacingLeft=4;spacingRight=4;overflow=hidden;rotatable=0;points=[[0,0.5],[1,0.5]];portConstraint=eastwest;whiteSpace=wrap;html=1;" parent="3USreQd8vCP4ivT73Nro-5" vertex="1">
          <mxGeometry y="26" width="160" height="26" as="geometry" />
        </mxCell>
        <mxCell id="3USreQd8vCP4ivT73Nro-7" value="" style="line;strokeWidth=1;fillColor=none;align=left;verticalAlign=middle;spacingTop=-1;spacingLeft=3;spacingRight=3;rotatable=0;labelPosition=right;points=[];portConstraint=eastwest;strokeColor=inherit;" parent="3USreQd8vCP4ivT73Nro-5" vertex="1">
          <mxGeometry y="52" width="160" height="8" as="geometry" />
        </mxCell>
        <mxCell id="3USreQd8vCP4ivT73Nro-8" value="+ method(type): type" style="text;strokeColor=none;fillColor=none;align=left;verticalAlign=top;spacingLeft=4;spacingRight=4;overflow=hidden;rotatable=0;points=[[0,0.5],[1,0.5]];portConstraint=eastwest;whiteSpace=wrap;html=1;" parent="3USreQd8vCP4ivT73Nro-5" vertex="1">
          <mxGeometry y="60" width="160" height="26" as="geometry" />
        </mxCell>
        <mxCell id="3USreQd8vCP4ivT73Nro-9" value="ProxyService" style="swimlane;fontStyle=1;align=center;verticalAlign=top;childLayout=stackLayout;horizontal=1;startSize=26;horizontalStack=0;resizeParent=1;resizeParentMax=0;resizeLast=0;collapsible=1;marginBottom=0;whiteSpace=wrap;html=1;" parent="1" vertex="1">
          <mxGeometry x="130" y="230" width="160" height="100" as="geometry" />
        </mxCell>
        <mxCell id="3USreQd8vCP4ivT73Nro-10" value="- service: Service" style="text;strokeColor=none;fillColor=none;align=left;verticalAlign=top;spacingLeft=4;spacingRight=4;overflow=hidden;rotatable=0;points=[[0,0.5],[1,0.5]];portConstraint=eastwest;whiteSpace=wrap;html=1;" parent="3USreQd8vCP4ivT73Nro-9" vertex="1">
          <mxGeometry y="26" width="160" height="26" as="geometry" />
        </mxCell>
        <mxCell id="3USreQd8vCP4ivT73Nro-11" value="" style="line;strokeWidth=1;fillColor=none;align=left;verticalAlign=middle;spacingTop=-1;spacingLeft=3;spacingRight=3;rotatable=0;labelPosition=right;points=[];portConstraint=eastwest;strokeColor=inherit;" parent="3USreQd8vCP4ivT73Nro-9" vertex="1">
          <mxGeometry y="52" width="160" height="8" as="geometry" />
        </mxCell>
        <mxCell id="3USreQd8vCP4ivT73Nro-12" value="+ method(type): type&lt;br&gt;+ extraMethod()" style="text;strokeColor=none;fillColor=none;align=left;verticalAlign=top;spacingLeft=4;spacingRight=4;overflow=hidden;rotatable=0;points=[[0,0.5],[1,0.5]];portConstraint=eastwest;whiteSpace=wrap;html=1;" parent="3USreQd8vCP4ivT73Nro-9" vertex="1">
          <mxGeometry y="60" width="160" height="40" as="geometry" />
        </mxCell>
        <mxCell id="3USreQd8vCP4ivT73Nro-17" style="edgeStyle=orthogonalEdgeStyle;rounded=0;orthogonalLoop=1;jettySize=auto;html=1;exitX=1;exitY=0.25;exitDx=0;exitDy=0;" parent="1" source="3USreQd8vCP4ivT73Nro-13" target="3USreQd8vCP4ivT73Nro-2" edge="1">
          <mxGeometry relative="1" as="geometry" />
        </mxCell>
        <mxCell id="3USreQd8vCP4ivT73Nro-13" value="client" style="rounded=1;whiteSpace=wrap;html=1;" parent="1" vertex="1">
          <mxGeometry x="90" y="60" width="120" height="30" as="geometry" />
        </mxCell>
        <mxCell id="3USreQd8vCP4ivT73Nro-14" style="edgeStyle=orthogonalEdgeStyle;rounded=0;orthogonalLoop=1;jettySize=auto;html=1;entryX=0.494;entryY=1;entryDx=0;entryDy=0;entryPerimeter=0;" parent="1" source="3USreQd8vCP4ivT73Nro-9" target="3USreQd8vCP4ivT73Nro-4" edge="1">
          <mxGeometry relative="1" as="geometry" />
        </mxCell>
        <mxCell id="3USreQd8vCP4ivT73Nro-16" value="" style="endArrow=diamondThin;endFill=0;endSize=24;html=1;rounded=0;entryX=0;entryY=0.5;entryDx=0;entryDy=0;exitX=0.999;exitY=0.307;exitDx=0;exitDy=0;exitPerimeter=0;" parent="1" source="3USreQd8vCP4ivT73Nro-12" target="3USreQd8vCP4ivT73Nro-8" edge="1">
          <mxGeometry width="160" relative="1" as="geometry">
            <mxPoint x="270" y="170" as="sourcePoint" />
            <mxPoint x="430" y="170" as="targetPoint" />
          </mxGeometry>
        </mxCell>
        <mxCell id="3USreQd8vCP4ivT73Nro-18" value="&amp;lt;&amp;lt;BankService&amp;gt;&amp;gt;" style="swimlane;fontStyle=1;align=center;verticalAlign=top;childLayout=stackLayout;horizontal=1;startSize=26;horizontalStack=0;resizeParent=1;resizeParentMax=0;resizeLast=0;collapsible=1;marginBottom=0;whiteSpace=wrap;html=1;" parent="1" vertex="1">
          <mxGeometry x="270" y="400" width="160" height="86" as="geometry" />
        </mxCell>
        <mxCell id="3USreQd8vCP4ivT73Nro-19" value="..." style="text;strokeColor=none;fillColor=none;align=left;verticalAlign=top;spacingLeft=4;spacingRight=4;overflow=hidden;rotatable=0;points=[[0,0.5],[1,0.5]];portConstraint=eastwest;whiteSpace=wrap;html=1;" parent="3USreQd8vCP4ivT73Nro-18" vertex="1">
          <mxGeometry y="26" width="160" height="26" as="geometry" />
        </mxCell>
        <mxCell id="3USreQd8vCP4ivT73Nro-20" value="" style="line;strokeWidth=1;fillColor=none;align=left;verticalAlign=middle;spacingTop=-1;spacingLeft=3;spacingRight=3;rotatable=0;labelPosition=right;points=[];portConstraint=eastwest;strokeColor=inherit;" parent="3USreQd8vCP4ivT73Nro-18" vertex="1">
          <mxGeometry y="52" width="160" height="8" as="geometry" />
        </mxCell>
        <mxCell id="3USreQd8vCP4ivT73Nro-21" value="+ method(type): type" style="text;strokeColor=none;fillColor=none;align=left;verticalAlign=top;spacingLeft=4;spacingRight=4;overflow=hidden;rotatable=0;points=[[0,0.5],[1,0.5]];portConstraint=eastwest;whiteSpace=wrap;html=1;" parent="3USreQd8vCP4ivT73Nro-18" vertex="1">
          <mxGeometry y="60" width="160" height="26" as="geometry" />
        </mxCell>
        <mxCell id="3USreQd8vCP4ivT73Nro-23" value="Bank" style="swimlane;fontStyle=1;align=center;verticalAlign=top;childLayout=stackLayout;horizontal=1;startSize=26;horizontalStack=0;resizeParent=1;resizeParentMax=0;resizeLast=0;collapsible=1;marginBottom=0;whiteSpace=wrap;html=1;" parent="1" vertex="1">
          <mxGeometry x="490" y="485" width="160" height="86" as="geometry" />
        </mxCell>
        <mxCell id="3USreQd8vCP4ivT73Nro-24" value="..." style="text;strokeColor=none;fillColor=none;align=left;verticalAlign=top;spacingLeft=4;spacingRight=4;overflow=hidden;rotatable=0;points=[[0,0.5],[1,0.5]];portConstraint=eastwest;whiteSpace=wrap;html=1;" parent="3USreQd8vCP4ivT73Nro-23" vertex="1">
          <mxGeometry y="26" width="160" height="26" as="geometry" />
        </mxCell>
        <mxCell id="3USreQd8vCP4ivT73Nro-25" value="" style="line;strokeWidth=1;fillColor=none;align=left;verticalAlign=middle;spacingTop=-1;spacingLeft=3;spacingRight=3;rotatable=0;labelPosition=right;points=[];portConstraint=eastwest;strokeColor=inherit;" parent="3USreQd8vCP4ivT73Nro-23" vertex="1">
          <mxGeometry y="52" width="160" height="8" as="geometry" />
        </mxCell>
        <mxCell id="3USreQd8vCP4ivT73Nro-26" value="+ debit()" style="text;strokeColor=none;fillColor=none;align=left;verticalAlign=top;spacingLeft=4;spacingRight=4;overflow=hidden;rotatable=0;points=[[0,0.5],[1,0.5]];portConstraint=eastwest;whiteSpace=wrap;html=1;" parent="3USreQd8vCP4ivT73Nro-23" vertex="1">
          <mxGeometry y="60" width="160" height="26" as="geometry" />
        </mxCell>
        <mxCell id="3USreQd8vCP4ivT73Nro-27" style="edgeStyle=orthogonalEdgeStyle;rounded=0;orthogonalLoop=1;jettySize=auto;html=1;" parent="1" source="3USreQd8vCP4ivT73Nro-24" target="3USreQd8vCP4ivT73Nro-21" edge="1">
          <mxGeometry relative="1" as="geometry" />
        </mxCell>
        <mxCell id="3USreQd8vCP4ivT73Nro-32" style="edgeStyle=orthogonalEdgeStyle;rounded=0;orthogonalLoop=1;jettySize=auto;html=1;entryX=0;entryY=0.5;entryDx=0;entryDy=0;" parent="1" source="3USreQd8vCP4ivT73Nro-28" target="3USreQd8vCP4ivT73Nro-19" edge="1">
          <mxGeometry relative="1" as="geometry">
            <Array as="points">
              <mxPoint x="220" y="440" />
              <mxPoint x="250" y="440" />
              <mxPoint x="250" y="439" />
            </Array>
          </mxGeometry>
        </mxCell>
        <mxCell id="3USreQd8vCP4ivT73Nro-28" value="ATM(Proxy)" style="swimlane;fontStyle=1;align=center;verticalAlign=top;childLayout=stackLayout;horizontal=1;startSize=26;horizontalStack=0;resizeParent=1;resizeParentMax=0;resizeLast=0;collapsible=1;marginBottom=0;whiteSpace=wrap;html=1;" parent="1" vertex="1">
          <mxGeometry x="190" y="520" width="160" height="86" as="geometry" />
        </mxCell>
        <mxCell id="3USreQd8vCP4ivT73Nro-29" value="bank: Bank" style="text;strokeColor=none;fillColor=none;align=left;verticalAlign=top;spacingLeft=4;spacingRight=4;overflow=hidden;rotatable=0;points=[[0,0.5],[1,0.5]];portConstraint=eastwest;whiteSpace=wrap;html=1;" parent="3USreQd8vCP4ivT73Nro-28" vertex="1">
          <mxGeometry y="26" width="160" height="26" as="geometry" />
        </mxCell>
        <mxCell id="3USreQd8vCP4ivT73Nro-30" value="" style="line;strokeWidth=1;fillColor=none;align=left;verticalAlign=middle;spacingTop=-1;spacingLeft=3;spacingRight=3;rotatable=0;labelPosition=right;points=[];portConstraint=eastwest;strokeColor=inherit;" parent="3USreQd8vCP4ivT73Nro-28" vertex="1">
          <mxGeometry y="52" width="160" height="8" as="geometry" />
        </mxCell>
        <mxCell id="3USreQd8vCP4ivT73Nro-31" value="+ debit()&lt;br&gt;" style="text;strokeColor=none;fillColor=none;align=left;verticalAlign=top;spacingLeft=4;spacingRight=4;overflow=hidden;rotatable=0;points=[[0,0.5],[1,0.5]];portConstraint=eastwest;whiteSpace=wrap;html=1;" parent="3USreQd8vCP4ivT73Nro-28" vertex="1">
          <mxGeometry y="60" width="160" height="26" as="geometry" />
        </mxCell>
        <mxCell id="3USreQd8vCP4ivT73Nro-33" value="" style="endArrow=diamondThin;endFill=0;endSize=24;html=1;rounded=0;entryX=0;entryY=0.5;entryDx=0;entryDy=0;exitX=1;exitY=0.5;exitDx=0;exitDy=0;" parent="1" source="3USreQd8vCP4ivT73Nro-29" target="3USreQd8vCP4ivT73Nro-26" edge="1">
          <mxGeometry width="160" relative="1" as="geometry">
            <mxPoint x="240" y="420" as="sourcePoint" />
            <mxPoint x="400" y="420" as="targetPoint" />
          </mxGeometry>
        </mxCell>
      </root>
    </mxGraphModel>
  </diagram>
</mxfile>
